<svg width="630" height="900" xmlns="http://www.w3.org/2000/svg" style="background:#282c33">
  <g fill="none" fill-rule="evenodd">
    <path fill="#282C33" d="M0 0h630v900H0z"/>
    <path d="M190.72 310h248.56c23.04 0 41.72 18.76 41.72 41.91v196.18c0 23.15-18.68 41.91-41.72 41.91H190.72c-23.04 0-41.72-18.76-41.72-41.91V351.91c0-23.15 18.68-41.91 41.72-41.91zm0 12.48a29.36 29.36 0 0 0-29.3 29.43V548.1a29.36 29.36 0 0 0 29.3 29.43h248.56a29.36 29.36 0 0 0 29.3-29.43V351.9a29.36 29.36 0 0 0-29.3-29.43H190.72zm40.84 99.88c-16.18 0-29.3-13.18-29.3-29.43s13.12-29.43 29.3-29.43 29.29 13.18 29.29 29.43-13.12 29.43-29.3 29.43zm0-12.49a16.9 16.9 0 0 0 16.86-16.94 16.9 16.9 0 0 0-16.86-16.94 16.9 16.9 0 0 0-16.87 16.94 16.9 16.9 0 0 0 16.87 16.94zm-36.9 104.27a6.2 6.2 0 0 1-8.78 0 6.26 6.26 0 0 1 0-8.83l48.67-48.9a23.9 23.9 0 0 1 33.9 0l27.74 27.87a6.26 6.26 0 0 1 0 8.83 6.2 6.2 0 0 1-8.79 0l-27.74-27.87a11.5 11.5 0 0 0-16.32 0l-48.68 48.9zm92.78 20.94a6.2 6.2 0 0 1-8.8 0 6.26 6.26 0 0 1 0-8.82l110.37-110.87a23.9 23.9 0 0 1 33.9 0l27.74 27.87a6.26 6.26 0 0 1 0 8.83 6.2 6.2 0 0 1-8.79 0l-27.74-27.87a11.5 11.5 0 0 0-16.32 0L287.44 535.08z" stroke="#282C33" stroke-width="2" fill="#474F5D" fill-rule="nonzero" opacity=".5"/>
  </g>
</svg>
