<svg id="Слой_1" data-name="Слой 1" xmlns="http://www.w3.org/2000/svg" xmlns:xlink="http://www.w3.org/1999/xlink" viewBox="0 0 101.07 69.25"><defs><linearGradient id="Безымянный_градиент_85" x1="43.84" y1="247.94" x2="0.87" y2="173.51" gradientUnits="userSpaceOnUse"><stop offset="0" stop-color="#5c3c8c"/><stop offset="0.3" stop-color="#5a408f"/><stop offset="0.58" stop-color="#554b96"/><stop offset="0.84" stop-color="#4b5da3"/><stop offset="1" stop-color="#446cae"/></linearGradient><linearGradient id="Безымянный_градиент_85-2" x1="96.12" y1="230.03" x2="63.33" y2="173.24" xlink:href="#Безымянный_градиент_85"/><clipPath id="clip-path" transform="translate(-1.67 -173.04)"><path d="M13,214.63v27.66H1.67V173H21.23q13.4,0,19.84,5t6.44,15.16q0,12.93-13.45,18.43l19.56,30.64H40.74L24.16,214.63Zm0-9.38h7.86q7.91,0,11.46-2.94t3.55-8.71q0-5.88-3.83-8.43t-11.56-2.56H13Z" fill="url(#Безымянный_градиент_85)"/></clipPath><linearGradient id="Безымянный_градиент_85-4" x1="16.25" y1="29.39" x2="6.43" y2="12.39" xlink:href="#Безымянный_градиент_85"/><linearGradient id="Безымянный_градиент_85-5" x1="16.64" y1="29.51" x2="6.68" y2="12.27" xlink:href="#Безымянный_градиент_85"/><linearGradient id="Безымянный_градиент_85-6" x1="17.23" y1="29.51" x2="7.28" y2="12.27" xlink:href="#Безымянный_градиент_85"/><linearGradient id="Безымянный_градиент_85-7" x1="17.83" y1="29.51" x2="7.88" y2="12.27" xlink:href="#Безымянный_градиент_85"/><linearGradient id="Безымянный_градиент_85-8" x1="18.43" y1="29.51" x2="8.48" y2="12.27" xlink:href="#Безымянный_градиент_85"/><linearGradient id="Безымянный_градиент_85-9" x1="19.03" y1="29.51" x2="9.08" y2="12.27" xlink:href="#Безымянный_градиент_85"/><linearGradient id="Безымянный_градиент_85-10" x1="19.63" y1="29.51" x2="9.67" y2="12.27" xlink:href="#Безымянный_градиент_85"/><linearGradient id="Безымянный_градиент_85-11" x1="20.22" y1="29.51" x2="10.27" y2="12.27" xlink:href="#Безымянный_градиент_85"/><linearGradient id="Безымянный_градиент_85-12" x1="20.82" y1="29.51" x2="10.87" y2="12.27" xlink:href="#Безымянный_градиент_85"/><linearGradient id="Безымянный_градиент_85-13" x1="21.42" y1="29.51" x2="11.47" y2="12.27" xlink:href="#Безымянный_градиент_85"/><linearGradient id="Безымянный_градиент_85-14" x1="22.02" y1="29.51" x2="12.07" y2="12.27" xlink:href="#Безымянный_градиент_85"/><linearGradient id="Безымянный_градиент_85-15" x1="22.62" y1="29.51" x2="12.66" y2="12.27" xlink:href="#Безымянный_градиент_85"/><linearGradient id="Безымянный_градиент_85-16" x1="23.21" y1="29.51" x2="13.26" y2="12.27" xlink:href="#Безымянный_градиент_85"/><linearGradient id="Безымянный_градиент_85-17" x1="23.81" y1="29.51" x2="13.86" y2="12.27" xlink:href="#Безымянный_градиент_85"/><linearGradient id="Безымянный_градиент_85-18" x1="24.41" y1="29.51" x2="14.46" y2="12.27" xlink:href="#Безымянный_градиент_85"/><linearGradient id="Безымянный_градиент_85-19" x1="25.01" y1="29.51" x2="15.06" y2="12.27" xlink:href="#Безымянный_градиент_85"/><linearGradient id="Безымянный_градиент_85-20" x1="25.61" y1="29.51" x2="15.65" y2="12.27" xlink:href="#Безымянный_градиент_85"/><linearGradient id="Безымянный_градиент_85-21" x1="26.2" y1="29.51" x2="16.25" y2="12.27" xlink:href="#Безымянный_градиент_85"/><linearGradient id="Безымянный_градиент_85-22" x1="26.8" y1="29.51" x2="16.85" y2="12.27" xlink:href="#Безымянный_градиент_85"/><linearGradient id="Безымянный_градиент_85-23" x1="27.4" y1="29.51" x2="17.45" y2="12.27" xlink:href="#Безымянный_градиент_85"/><linearGradient id="Безымянный_градиент_85-24" x1="28" y1="29.51" x2="18.05" y2="12.27" xlink:href="#Безымянный_градиент_85"/><linearGradient id="Безымянный_градиент_85-25" x1="28.6" y1="29.51" x2="18.64" y2="12.27" xlink:href="#Безымянный_градиент_85"/><linearGradient id="Безымянный_градиент_85-26" x1="29.19" y1="29.51" x2="19.24" y2="12.27" xlink:href="#Безымянный_градиент_85"/><linearGradient id="Безымянный_градиент_85-27" x1="29.79" y1="29.51" x2="19.84" y2="12.27" xlink:href="#Безымянный_градиент_85"/><linearGradient id="Безымянный_градиент_85-28" x1="30.39" y1="29.51" x2="20.44" y2="12.27" xlink:href="#Безымянный_градиент_85"/><linearGradient id="Безымянный_градиент_85-29" x1="31.08" y1="29.54" x2="21.09" y2="12.24" xlink:href="#Безымянный_градиент_85"/><linearGradient id="Безымянный_градиент_85-30" x1="31.83" y1="29.54" x2="21.84" y2="12.24" xlink:href="#Безымянный_градиент_85"/><linearGradient id="Безымянный_градиент_85-31" x1="32.58" y1="29.54" x2="22.59" y2="12.24" xlink:href="#Безымянный_градиент_85"/><linearGradient id="Безымянный_градиент_85-32" x1="33.33" y1="29.54" x2="23.34" y2="12.24" xlink:href="#Безымянный_градиент_85"/><linearGradient id="Безымянный_градиент_85-33" x1="34.08" y1="29.54" x2="24.09" y2="12.24" xlink:href="#Безымянный_градиент_85"/><linearGradient id="Безымянный_градиент_85-34" x1="34.83" y1="29.54" x2="24.84" y2="12.24" xlink:href="#Безымянный_градиент_85"/><linearGradient id="Безымянный_градиент_85-35" x1="35.58" y1="29.54" x2="25.59" y2="12.24" xlink:href="#Безымянный_градиент_85"/><linearGradient id="Безымянный_градиент_85-36" x1="36.33" y1="29.54" x2="26.34" y2="12.24" xlink:href="#Безымянный_градиент_85"/><linearGradient id="Безымянный_градиент_85-37" x1="37.08" y1="29.54" x2="27.09" y2="12.24" xlink:href="#Безымянный_градиент_85"/><linearGradient id="Безымянный_градиент_85-38" x1="37.83" y1="29.54" x2="27.84" y2="12.24" xlink:href="#Безымянный_градиент_85"/><linearGradient id="Безымянный_градиент_85-39" x1="38.58" y1="29.54" x2="28.59" y2="12.24" xlink:href="#Безымянный_градиент_85"/><linearGradient id="Безымянный_градиент_85-40" x1="39.01" y1="29.43" x2="29.15" y2="12.35" xlink:href="#Безымянный_градиент_85"/><linearGradient id="Безымянный_градиент_85-41" x1="16.66" y1="233.63" x2="-13.33" y2="181.7" xlink:href="#Безымянный_градиент_85"/><linearGradient id="Безымянный_градиент_85-42" x1="15.37" y1="60.72" x2="-14.77" y2="8.53" xlink:href="#Безымянный_градиент_85"/><linearGradient id="Безымянный_градиент_85-43" x1="15.96" y1="60.72" x2="-14.17" y2="8.53" xlink:href="#Безымянный_градиент_85"/><linearGradient id="Безымянный_градиент_85-44" x1="16.56" y1="60.72" x2="-13.57" y2="8.53" xlink:href="#Безымянный_градиент_85"/><linearGradient id="Безымянный_градиент_85-45" x1="17.16" y1="60.72" x2="-12.97" y2="8.53" xlink:href="#Безымянный_градиент_85"/><linearGradient id="Безымянный_градиент_85-46" x1="17.76" y1="60.72" x2="-12.38" y2="8.53" xlink:href="#Безымянный_градиент_85"/><linearGradient id="Безымянный_градиент_85-47" x1="18.36" y1="60.72" x2="-11.78" y2="8.53" xlink:href="#Безымянный_градиент_85"/><linearGradient id="Безымянный_градиент_85-48" x1="18.95" y1="60.72" x2="-11.18" y2="8.53" xlink:href="#Безымянный_градиент_85"/><linearGradient id="Безымянный_градиент_85-49" x1="19.55" y1="60.72" x2="-10.58" y2="8.53" xlink:href="#Безымянный_градиент_85"/><linearGradient id="Безымянный_градиент_85-50" x1="20.15" y1="60.72" x2="-9.98" y2="8.53" xlink:href="#Безымянный_градиент_85"/><linearGradient id="Безымянный_градиент_85-51" x1="20.75" y1="60.72" x2="-9.39" y2="8.53" xlink:href="#Безымянный_градиент_85"/><linearGradient id="Безымянный_градиент_85-52" x1="21.35" y1="60.72" x2="-8.79" y2="8.53" xlink:href="#Безымянный_градиент_85"/><linearGradient id="Безымянный_градиент_85-53" x1="21.94" y1="60.72" x2="-8.19" y2="8.53" xlink:href="#Безымянный_градиент_85"/><linearGradient id="Безымянный_градиент_85-54" x1="22.54" y1="60.72" x2="-7.59" y2="8.53" xlink:href="#Безымянный_градиент_85"/><linearGradient id="Безымянный_градиент_85-55" x1="23.14" y1="60.72" x2="-6.99" y2="8.53" xlink:href="#Безымянный_градиент_85"/><linearGradient id="Безымянный_градиент_85-56" x1="23.74" y1="60.72" x2="-6.4" y2="8.53" xlink:href="#Безымянный_градиент_85"/><linearGradient id="Безымянный_градиент_85-57" x1="24.34" y1="60.72" x2="-5.8" y2="8.53" xlink:href="#Безымянный_градиент_85"/><linearGradient id="Безымянный_градиент_85-58" x1="24.93" y1="60.72" x2="-5.2" y2="8.53" xlink:href="#Безымянный_градиент_85"/><linearGradient id="Безымянный_градиент_85-59" x1="25.53" y1="60.72" x2="-4.6" y2="8.53" xlink:href="#Безымянный_градиент_85"/><linearGradient id="Безымянный_градиент_85-60" x1="26.13" y1="60.72" x2="-4" y2="8.53" xlink:href="#Безымянный_градиент_85"/><linearGradient id="Безымянный_градиент_85-61" x1="26.73" y1="60.72" x2="-3.41" y2="8.53" xlink:href="#Безымянный_градиент_85"/><linearGradient id="Безымянный_градиент_85-62" x1="27.33" y1="60.72" x2="-2.81" y2="8.53" xlink:href="#Безымянный_градиент_85"/><linearGradient id="Безымянный_градиент_85-63" x1="27.92" y1="60.72" x2="-2.21" y2="8.53" xlink:href="#Безымянный_градиент_85"/><linearGradient id="Безымянный_градиент_85-64" x1="28.52" y1="60.72" x2="-1.61" y2="8.53" xlink:href="#Безымянный_градиент_85"/><linearGradient id="Безымянный_градиент_85-65" x1="29.12" y1="60.72" x2="-1.01" y2="8.53" xlink:href="#Безымянный_градиент_85"/><linearGradient id="Безымянный_градиент_85-66" x1="29.72" y1="60.72" x2="-0.42" y2="8.53" xlink:href="#Безымянный_градиент_85"/><linearGradient id="Безымянный_градиент_85-67" x1="30.31" y1="60.72" x2="0.18" y2="8.53" xlink:href="#Безымянный_градиент_85"/><linearGradient id="Безымянный_градиент_85-68" x1="30.91" y1="60.72" x2="0.78" y2="8.53" xlink:href="#Безымянный_градиент_85"/><linearGradient id="Безымянный_градиент_85-69" x1="31.51" y1="60.72" x2="1.38" y2="8.53" xlink:href="#Безымянный_градиент_85"/><linearGradient id="Безымянный_градиент_85-70" x1="32.11" y1="60.72" x2="1.98" y2="8.53" xlink:href="#Безымянный_градиент_85"/><linearGradient id="Безымянный_градиент_85-71" x1="32.71" y1="60.72" x2="2.57" y2="8.53" xlink:href="#Безымянный_градиент_85"/><linearGradient id="Безымянный_градиент_85-72" x1="33.3" y1="60.72" x2="3.17" y2="8.53" xlink:href="#Безымянный_градиент_85"/><linearGradient id="Безымянный_градиент_85-73" x1="33.9" y1="60.72" x2="3.77" y2="8.53" xlink:href="#Безымянный_градиент_85"/><linearGradient id="Безымянный_градиент_85-74" x1="34.5" y1="60.72" x2="4.37" y2="8.53" xlink:href="#Безымянный_градиент_85"/><linearGradient id="Безымянный_градиент_85-75" x1="35.1" y1="60.72" x2="4.97" y2="8.53" xlink:href="#Безымянный_градиент_85"/><linearGradient id="Безымянный_градиент_85-76" x1="35.7" y1="60.72" x2="5.56" y2="8.53" xlink:href="#Безымянный_градиент_85"/><linearGradient id="Безымянный_градиент_85-77" x1="36.29" y1="60.72" x2="6.16" y2="8.53" xlink:href="#Безымянный_градиент_85"/><linearGradient id="Безымянный_градиент_85-78" x1="36.89" y1="60.72" x2="6.76" y2="8.53" xlink:href="#Безымянный_градиент_85"/><linearGradient id="Безымянный_градиент_85-79" x1="37.49" y1="60.72" x2="7.36" y2="8.53" xlink:href="#Безымянный_градиент_85"/><linearGradient id="Безымянный_градиент_85-80" x1="38.09" y1="60.72" x2="7.95" y2="8.53" xlink:href="#Безымянный_градиент_85"/><linearGradient id="Безымянный_градиент_85-81" x1="38.69" y1="60.72" x2="8.55" y2="8.53" xlink:href="#Безымянный_градиент_85"/><linearGradient id="Безымянный_градиент_85-82" x1="39.28" y1="60.72" x2="9.15" y2="8.53" xlink:href="#Безымянный_градиент_85"/><linearGradient id="Безымянный_градиент_85-83" x1="39.88" y1="60.72" x2="9.75" y2="8.53" xlink:href="#Безымянный_градиент_85"/><linearGradient id="Безымянный_градиент_85-84" x1="40.48" y1="60.72" x2="10.35" y2="8.53" xlink:href="#Безымянный_градиент_85"/><linearGradient id="Безымянный_градиент_85-85" x1="41.17" y1="60.75" x2="11" y2="8.49" xlink:href="#Безымянный_градиент_85"/><linearGradient id="Безымянный_градиент_85-86" x1="41.92" y1="60.75" x2="11.75" y2="8.49" xlink:href="#Безымянный_градиент_85"/><linearGradient id="Безымянный_градиент_85-87" x1="42.67" y1="60.75" x2="12.5" y2="8.49" xlink:href="#Безымянный_градиент_85"/><linearGradient id="Безымянный_градиент_85-88" x1="43.42" y1="60.75" x2="13.25" y2="8.49" xlink:href="#Безымянный_градиент_85"/><linearGradient id="Безымянный_градиент_85-89" x1="44.17" y1="60.75" x2="14" y2="8.49" xlink:href="#Безымянный_градиент_85"/><linearGradient id="Безымянный_градиент_85-90" x1="44.92" y1="60.75" x2="14.75" y2="8.49" xlink:href="#Безымянный_градиент_85"/><linearGradient id="Безымянный_градиент_85-91" x1="45.67" y1="60.75" x2="15.5" y2="8.49" xlink:href="#Безымянный_градиент_85"/><linearGradient id="Безымянный_градиент_85-92" x1="46.42" y1="60.75" x2="16.25" y2="8.49" xlink:href="#Безымянный_градиент_85"/><linearGradient id="Безымянный_градиент_85-93" x1="47.17" y1="60.75" x2="17" y2="8.49" xlink:href="#Безымянный_градиент_85"/><linearGradient id="Безымянный_градиент_85-94" x1="47.92" y1="60.75" x2="17.75" y2="8.49" xlink:href="#Безымянный_градиент_85"/><linearGradient id="Безымянный_градиент_85-95" x1="48.67" y1="60.75" x2="18.5" y2="8.49" xlink:href="#Безымянный_градиент_85"/><linearGradient id="Безымянный_градиент_85-96" x1="49.42" y1="60.75" x2="19.25" y2="8.49" xlink:href="#Безымянный_градиент_85"/><linearGradient id="Безымянный_градиент_85-97" x1="50.17" y1="60.75" x2="20" y2="8.49" xlink:href="#Безымянный_градиент_85"/><linearGradient id="Безымянный_градиент_85-98" x1="50.92" y1="60.75" x2="20.75" y2="8.49" xlink:href="#Безымянный_градиент_85"/><linearGradient id="Безымянный_градиент_85-99" x1="51.67" y1="60.75" x2="21.5" y2="8.49" xlink:href="#Безымянный_градиент_85"/><linearGradient id="Безымянный_градиент_85-100" x1="52.42" y1="60.75" x2="22.25" y2="8.49" xlink:href="#Безымянный_градиент_85"/><linearGradient id="Безымянный_градиент_85-101" x1="53.17" y1="60.75" x2="23" y2="8.49" xlink:href="#Безымянный_градиент_85"/><linearGradient id="Безымянный_градиент_85-102" x1="53.92" y1="60.75" x2="23.75" y2="8.49" xlink:href="#Безымянный_градиент_85"/><linearGradient id="Безымянный_градиент_85-103" x1="54.67" y1="60.75" x2="24.5" y2="8.49" xlink:href="#Безымянный_градиент_85"/><linearGradient id="Безымянный_градиент_85-104" x1="55.42" y1="60.75" x2="25.25" y2="8.49" xlink:href="#Безымянный_градиент_85"/><linearGradient id="Безымянный_градиент_85-105" x1="56.17" y1="60.75" x2="26" y2="8.49" xlink:href="#Безымянный_градиент_85"/><linearGradient id="Безымянный_градиент_85-106" x1="56.92" y1="60.75" x2="26.75" y2="8.49" xlink:href="#Безымянный_градиент_85"/><linearGradient id="Безымянный_градиент_85-107" x1="57.67" y1="60.75" x2="27.5" y2="8.49" xlink:href="#Безымянный_градиент_85"/><linearGradient id="Безымянный_градиент_85-108" x1="58.42" y1="60.75" x2="28.25" y2="8.49" xlink:href="#Безымянный_градиент_85"/><linearGradient id="Безымянный_градиент_85-109" x1="59.17" y1="60.75" x2="29" y2="8.49" xlink:href="#Безымянный_градиент_85"/><linearGradient id="Безымянный_градиент_85-110" x1="59.92" y1="60.75" x2="29.75" y2="8.49" xlink:href="#Безымянный_градиент_85"/><linearGradient id="Безымянный_градиент_85-111" x1="60.67" y1="60.75" x2="30.5" y2="8.49" xlink:href="#Безымянный_градиент_85"/><linearGradient id="Безымянный_градиент_85-112" x1="61.42" y1="60.75" x2="31.25" y2="8.49" xlink:href="#Безымянный_градиент_85"/><linearGradient id="Безымянный_градиент_85-113" x1="62.17" y1="60.75" x2="32" y2="8.49" xlink:href="#Безымянный_градиент_85"/><linearGradient id="Безымянный_градиент_85-114" x1="62.92" y1="60.75" x2="32.75" y2="8.49" xlink:href="#Безымянный_градиент_85"/><linearGradient id="Безымянный_градиент_85-115" x1="63.67" y1="60.75" x2="33.5" y2="8.49" xlink:href="#Безымянный_градиент_85"/><linearGradient id="Безымянный_градиент_85-116" x1="64.42" y1="60.75" x2="34.25" y2="8.49" xlink:href="#Безымянный_градиент_85"/><linearGradient id="Безымянный_градиент_85-117" x1="65.17" y1="60.75" x2="35" y2="8.49" xlink:href="#Безымянный_градиент_85"/><linearGradient id="Безымянный_градиент_85-118" x1="65.92" y1="60.75" x2="35.75" y2="8.49" xlink:href="#Безымянный_градиент_85"/><linearGradient id="Безымянный_градиент_85-119" x1="66.67" y1="60.75" x2="36.5" y2="8.49" xlink:href="#Безымянный_градиент_85"/><linearGradient id="Безымянный_градиент_85-120" x1="68.62" y1="233.63" x2="38.63" y2="181.7" xlink:href="#Безымянный_градиент_85"/><clipPath id="clip-path-2" transform="translate(-1.67 -173.04)"><path d="M74.89,242.29H63.67V173h39.07v9.57H74.89v21.65H101v9.61H74.89Z" fill="url(#Безымянный_градиент_85-2)"/></clipPath><linearGradient id="Безымянный_градиент_85-122" x1="78.66" y1="233.63" x2="48.67" y2="181.7" xlink:href="#Безымянный_градиент_85"/><linearGradient id="Безымянный_градиент_85-123" x1="77.27" y1="60.69" x2="47.18" y2="8.56" xlink:href="#Безымянный_градиент_85"/><linearGradient id="Безымянный_градиент_85-124" x1="77.72" y1="60.69" x2="47.63" y2="8.56" xlink:href="#Безымянный_градиент_85"/><linearGradient id="Безымянный_градиент_85-125" x1="78.17" y1="60.69" x2="48.07" y2="8.56" xlink:href="#Безымянный_градиент_85"/><linearGradient id="Безымянный_градиент_85-126" x1="78.62" y1="60.69" x2="48.52" y2="8.56" xlink:href="#Безымянный_градиент_85"/><linearGradient id="Безымянный_градиент_85-127" x1="79.07" y1="60.69" x2="48.97" y2="8.56" xlink:href="#Безымянный_градиент_85"/><linearGradient id="Безымянный_градиент_85-128" x1="79.52" y1="60.69" x2="49.42" y2="8.56" xlink:href="#Безымянный_градиент_85"/><linearGradient id="Безымянный_градиент_85-129" x1="79.97" y1="60.69" x2="49.87" y2="8.56" xlink:href="#Безымянный_градиент_85"/><linearGradient id="Безымянный_градиент_85-130" x1="80.42" y1="60.69" x2="50.32" y2="8.56" xlink:href="#Безымянный_градиент_85"/><linearGradient id="Безымянный_градиент_85-131" x1="80.87" y1="60.69" x2="50.77" y2="8.56" xlink:href="#Безымянный_градиент_85"/><linearGradient id="Безымянный_градиент_85-132" x1="81.32" y1="60.69" x2="51.22" y2="8.56" xlink:href="#Безымянный_градиент_85"/><linearGradient id="Безымянный_градиент_85-133" x1="81.77" y1="60.69" x2="51.67" y2="8.56" xlink:href="#Безымянный_градиент_85"/><linearGradient id="Безымянный_градиент_85-134" x1="82.22" y1="60.69" x2="52.12" y2="8.56" xlink:href="#Безымянный_градиент_85"/><linearGradient id="Безымянный_градиент_85-135" x1="82.67" y1="60.69" x2="52.57" y2="8.56" xlink:href="#Безымянный_градиент_85"/><linearGradient id="Безымянный_градиент_85-136" x1="83.12" y1="60.69" x2="53.02" y2="8.56" xlink:href="#Безымянный_градиент_85"/><linearGradient id="Безымянный_градиент_85-137" x1="83.57" y1="60.69" x2="53.47" y2="8.56" xlink:href="#Безымянный_градиент_85"/><linearGradient id="Безымянный_градиент_85-138" x1="84.02" y1="60.69" x2="53.92" y2="8.56" xlink:href="#Безымянный_градиент_85"/><linearGradient id="Безымянный_градиент_85-139" x1="84.47" y1="60.69" x2="54.37" y2="8.56" xlink:href="#Безымянный_градиент_85"/><linearGradient id="Безымянный_градиент_85-140" x1="84.92" y1="60.69" x2="54.82" y2="8.56" xlink:href="#Безымянный_градиент_85"/><linearGradient id="Безымянный_градиент_85-141" x1="85.37" y1="60.69" x2="55.27" y2="8.56" xlink:href="#Безымянный_градиент_85"/><linearGradient id="Безымянный_градиент_85-142" x1="85.82" y1="60.69" x2="55.72" y2="8.56" xlink:href="#Безымянный_градиент_85"/><linearGradient id="Безымянный_градиент_85-143" x1="86.27" y1="60.69" x2="56.17" y2="8.56" xlink:href="#Безымянный_градиент_85"/><linearGradient id="Безымянный_градиент_85-144" x1="86.72" y1="60.69" x2="56.62" y2="8.56" xlink:href="#Безымянный_градиент_85"/><linearGradient id="Безымянный_градиент_85-145" x1="87.17" y1="60.69" x2="57.07" y2="8.56" xlink:href="#Безымянный_градиент_85"/><linearGradient id="Безымянный_градиент_85-146" x1="87.61" y1="60.69" x2="57.52" y2="8.56" xlink:href="#Безымянный_градиент_85"/><linearGradient id="Безымянный_градиент_85-147" x1="88.06" y1="60.69" x2="57.97" y2="8.56" xlink:href="#Безымянный_градиент_85"/><linearGradient id="Безымянный_градиент_85-148" x1="88.51" y1="60.69" x2="58.42" y2="8.56" xlink:href="#Безымянный_градиент_85"/><linearGradient id="Безымянный_градиент_85-149" x1="88.96" y1="60.69" x2="58.87" y2="8.56" xlink:href="#Безымянный_градиент_85"/><linearGradient id="Безымянный_градиент_85-150" x1="89.41" y1="60.69" x2="59.32" y2="8.56" xlink:href="#Безымянный_градиент_85"/><linearGradient id="Безымянный_градиент_85-151" x1="89.86" y1="60.69" x2="59.77" y2="8.56" xlink:href="#Безымянный_градиент_85"/><linearGradient id="Безымянный_градиент_85-152" x1="90.31" y1="60.69" x2="60.22" y2="8.56" xlink:href="#Безымянный_градиент_85"/><linearGradient id="Безымянный_градиент_85-153" x1="90.76" y1="60.69" x2="60.67" y2="8.56" xlink:href="#Безымянный_градиент_85"/><linearGradient id="Безымянный_градиент_85-154" x1="91.21" y1="60.69" x2="61.12" y2="8.56" xlink:href="#Безымянный_градиент_85"/><linearGradient id="Безымянный_градиент_85-155" x1="91.66" y1="60.69" x2="61.57" y2="8.56" xlink:href="#Безымянный_градиент_85"/><linearGradient id="Безымянный_градиент_85-156" x1="92.11" y1="60.69" x2="62.02" y2="8.56" xlink:href="#Безымянный_градиент_85"/><linearGradient id="Безымянный_градиент_85-157" x1="92.56" y1="60.69" x2="62.47" y2="8.56" xlink:href="#Безымянный_градиент_85"/><linearGradient id="Безымянный_градиент_85-158" x1="93.01" y1="60.69" x2="62.91" y2="8.56" xlink:href="#Безымянный_градиент_85"/><linearGradient id="Безымянный_градиент_85-159" x1="93.46" y1="60.69" x2="63.36" y2="8.56" xlink:href="#Безымянный_градиент_85"/><linearGradient id="Безымянный_градиент_85-160" x1="93.91" y1="60.69" x2="63.81" y2="8.56" xlink:href="#Безымянный_градиент_85"/><linearGradient id="Безымянный_градиент_85-161" x1="94.36" y1="60.69" x2="64.26" y2="8.56" xlink:href="#Безымянный_градиент_85"/><linearGradient id="Безымянный_градиент_85-162" x1="94.81" y1="60.69" x2="64.71" y2="8.56" xlink:href="#Безымянный_градиент_85"/><linearGradient id="Безымянный_градиент_85-163" x1="95.26" y1="60.69" x2="65.16" y2="8.56" xlink:href="#Безымянный_градиент_85"/><linearGradient id="Безымянный_градиент_85-164" x1="95.71" y1="60.69" x2="65.61" y2="8.56" xlink:href="#Безымянный_градиент_85"/><linearGradient id="Безымянный_градиент_85-165" x1="96.16" y1="60.69" x2="66.06" y2="8.56" xlink:href="#Безымянный_градиент_85"/><linearGradient id="Безымянный_градиент_85-166" x1="96.68" y1="60.71" x2="66.56" y2="8.53" xlink:href="#Безымянный_градиент_85"/><linearGradient id="Безымянный_градиент_85-167" x1="97.24" y1="60.71" x2="67.12" y2="8.53" xlink:href="#Безымянный_градиент_85"/><linearGradient id="Безымянный_градиент_85-168" x1="97.81" y1="60.71" x2="67.68" y2="8.53" xlink:href="#Безымянный_градиент_85"/><linearGradient id="Безымянный_градиент_85-169" x1="98.37" y1="60.71" x2="68.25" y2="8.53" xlink:href="#Безымянный_градиент_85"/><linearGradient id="Безымянный_градиент_85-170" x1="98.94" y1="60.71" x2="68.81" y2="8.53" xlink:href="#Безымянный_градиент_85"/><linearGradient id="Безымянный_градиент_85-171" x1="99.5" y1="60.71" x2="69.37" y2="8.53" xlink:href="#Безымянный_градиент_85"/><linearGradient id="Безымянный_градиент_85-172" x1="100.06" y1="60.71" x2="69.94" y2="8.53" xlink:href="#Безымянный_градиент_85"/><linearGradient id="Безымянный_градиент_85-173" x1="100.63" y1="60.71" x2="70.5" y2="8.53" xlink:href="#Безымянный_градиент_85"/><linearGradient id="Безымянный_градиент_85-174" x1="101.19" y1="60.71" x2="71.07" y2="8.53" xlink:href="#Безымянный_градиент_85"/><linearGradient id="Безымянный_градиент_85-175" x1="101.76" y1="60.71" x2="71.63" y2="8.53" xlink:href="#Безымянный_градиент_85"/><linearGradient id="Безымянный_градиент_85-176" x1="102.32" y1="60.71" x2="72.19" y2="8.53" xlink:href="#Безымянный_градиент_85"/><linearGradient id="Безымянный_градиент_85-177" x1="102.88" y1="60.71" x2="72.76" y2="8.53" xlink:href="#Безымянный_градиент_85"/><linearGradient id="Безымянный_градиент_85-178" x1="103.45" y1="60.71" x2="73.32" y2="8.53" xlink:href="#Безымянный_градиент_85"/><linearGradient id="Безымянный_градиент_85-179" x1="104.01" y1="60.71" x2="73.89" y2="8.53" xlink:href="#Безымянный_градиент_85"/><linearGradient id="Безымянный_градиент_85-180" x1="104.58" y1="60.71" x2="74.45" y2="8.53" xlink:href="#Безымянный_градиент_85"/><linearGradient id="Безымянный_градиент_85-181" x1="105.14" y1="60.71" x2="75.01" y2="8.53" xlink:href="#Безымянный_градиент_85"/><linearGradient id="Безымянный_градиент_85-182" x1="105.7" y1="60.71" x2="75.58" y2="8.53" xlink:href="#Безымянный_градиент_85"/><linearGradient id="Безымянный_градиент_85-183" x1="106.27" y1="60.71" x2="76.14" y2="8.53" xlink:href="#Безымянный_градиент_85"/><linearGradient id="Безымянный_градиент_85-184" x1="106.83" y1="60.71" x2="76.71" y2="8.53" xlink:href="#Безымянный_градиент_85"/><linearGradient id="Безымянный_градиент_85-185" x1="107.39" y1="60.71" x2="77.27" y2="8.53" xlink:href="#Безымянный_градиент_85"/><linearGradient id="Безымянный_градиент_85-186" x1="107.96" y1="60.71" x2="77.83" y2="8.53" xlink:href="#Безымянный_градиент_85"/><linearGradient id="Безымянный_градиент_85-187" x1="108.52" y1="60.71" x2="78.4" y2="8.53" xlink:href="#Безымянный_градиент_85"/><linearGradient id="Безымянный_градиент_85-188" x1="109.09" y1="60.71" x2="78.96" y2="8.53" xlink:href="#Безымянный_градиент_85"/><linearGradient id="Безымянный_градиент_85-189" x1="109.65" y1="60.71" x2="79.53" y2="8.53" xlink:href="#Безымянный_градиент_85"/><linearGradient id="Безымянный_градиент_85-190" x1="110.21" y1="60.71" x2="80.09" y2="8.53" xlink:href="#Безымянный_градиент_85"/><linearGradient id="Безымянный_градиент_85-191" x1="110.78" y1="60.71" x2="80.65" y2="8.53" xlink:href="#Безымянный_градиент_85"/><linearGradient id="Безымянный_градиент_85-192" x1="111.34" y1="60.71" x2="81.22" y2="8.53" xlink:href="#Безымянный_градиент_85"/><linearGradient id="Безымянный_градиент_85-193" x1="111.91" y1="60.71" x2="81.78" y2="8.53" xlink:href="#Безымянный_градиент_85"/><linearGradient id="Безымянный_градиент_85-194" x1="112.47" y1="60.71" x2="82.35" y2="8.53" xlink:href="#Безымянный_градиент_85"/><linearGradient id="Безымянный_градиент_85-195" x1="113.03" y1="60.71" x2="82.91" y2="8.53" xlink:href="#Безымянный_градиент_85"/><linearGradient id="Безымянный_градиент_85-196" x1="113.6" y1="60.71" x2="83.47" y2="8.53" xlink:href="#Безымянный_градиент_85"/><linearGradient id="Безымянный_градиент_85-197" x1="114.16" y1="60.71" x2="84.04" y2="8.53" xlink:href="#Безымянный_градиент_85"/><linearGradient id="Безымянный_градиент_85-198" x1="114.73" y1="60.71" x2="84.6" y2="8.53" xlink:href="#Безымянный_градиент_85"/><linearGradient id="Безымянный_градиент_85-199" x1="115.29" y1="60.71" x2="85.17" y2="8.53" xlink:href="#Безымянный_градиент_85"/><linearGradient id="Безымянный_градиент_85-200" x1="115.85" y1="60.71" x2="85.73" y2="8.53" xlink:href="#Безымянный_градиент_85"/><linearGradient id="Безымянный_градиент_85-201" x1="117.73" y1="233.63" x2="87.75" y2="181.7" xlink:href="#Безымянный_градиент_85"/><linearGradient id="Безымянный_градиент_85-202" x1="43.84" y1="247.94" x2="0.87" y2="173.51" xlink:href="#Безымянный_градиент_85"/><linearGradient id="Безымянный_градиент_85-203" x1="96.12" y1="230.03" x2="63.33" y2="173.24" xlink:href="#Безымянный_градиент_85"/></defs><title>rf</title><path d="M13,214.63v27.66H1.67V173H21.23q13.4,0,19.84,5t6.44,15.16q0,12.93-13.45,18.43l19.56,30.64H40.74L24.16,214.63Zm0-9.38h7.86q7.91,0,11.46-2.94t3.55-8.71q0-5.88-3.83-8.43t-11.56-2.56H13Z" transform="translate(-1.67 -173.04)" fill="url(#Безымянный_градиент_85)"/><g clip-path="url(#clip-path)"><rect x="11.32" y="9.57" width="0.04" height="22.64" fill="url(#Безымянный_градиент_85-4)"/><rect x="11.36" y="9.57" width="0.6" height="22.64" fill="url(#Безымянный_градиент_85-5)"/><rect x="11.96" y="9.57" width="0.6" height="22.64" fill="url(#Безымянный_градиент_85-6)"/><rect x="12.56" y="9.57" width="0.6" height="22.64" fill="url(#Безымянный_градиент_85-7)"/><rect x="13.16" y="9.57" width="0.6" height="22.64" fill="url(#Безымянный_градиент_85-8)"/><rect x="13.75" y="9.57" width="0.6" height="22.64" fill="url(#Безымянный_градиент_85-9)"/><rect x="14.35" y="9.57" width="0.6" height="22.64" fill="url(#Безымянный_градиент_85-10)"/><rect x="14.95" y="9.57" width="0.6" height="22.64" fill="url(#Безымянный_градиент_85-11)"/><rect x="15.55" y="9.57" width="0.6" height="22.64" fill="url(#Безымянный_градиент_85-12)"/><rect x="16.15" y="9.57" width="0.6" height="22.64" fill="url(#Безымянный_градиент_85-13)"/><rect x="16.74" y="9.57" width="0.6" height="22.64" fill="url(#Безымянный_градиент_85-14)"/><rect x="17.34" y="9.57" width="0.6" height="22.64" fill="url(#Безымянный_градиент_85-15)"/><rect x="17.94" y="9.57" width="0.6" height="22.64" fill="url(#Безымянный_градиент_85-16)"/><rect x="18.54" y="9.57" width="0.6" height="22.64" fill="url(#Безымянный_градиент_85-17)"/><rect x="19.13" y="9.57" width="0.6" height="22.64" fill="url(#Безымянный_градиент_85-18)"/><rect x="19.73" y="9.57" width="0.6" height="22.64" fill="url(#Безымянный_градиент_85-19)"/><rect x="20.33" y="9.57" width="0.6" height="22.64" fill="url(#Безымянный_градиент_85-20)"/><rect x="20.93" y="9.57" width="0.6" height="22.64" fill="url(#Безымянный_градиент_85-21)"/><rect x="21.53" y="9.57" width="0.6" height="22.64" fill="url(#Безымянный_градиент_85-22)"/><rect x="22.12" y="9.57" width="0.6" height="22.64" fill="url(#Безымянный_градиент_85-23)"/><rect x="22.72" y="9.57" width="0.6" height="22.64" fill="url(#Безымянный_градиент_85-24)"/><rect x="23.32" y="9.57" width="0.6" height="22.64" fill="url(#Безымянный_градиент_85-25)"/><rect x="23.92" y="9.57" width="0.6" height="22.64" fill="url(#Безымянный_градиент_85-26)"/><rect x="24.52" y="9.57" width="0.6" height="22.64" fill="url(#Безымянный_градиент_85-27)"/><rect x="25.11" y="9.57" width="0.6" height="22.64" fill="url(#Безымянный_градиент_85-28)"/><rect x="25.71" y="9.57" width="0.75" height="22.64" fill="url(#Безымянный_градиент_85-29)"/><rect x="26.46" y="9.57" width="0.75" height="22.64" fill="url(#Безымянный_градиент_85-30)"/><rect x="27.21" y="9.57" width="0.75" height="22.64" fill="url(#Безымянный_градиент_85-31)"/><rect x="27.96" y="9.57" width="0.75" height="22.64" fill="url(#Безымянный_градиент_85-32)"/><rect x="28.71" y="9.57" width="0.75" height="22.64" fill="url(#Безымянный_градиент_85-33)"/><rect x="29.46" y="9.57" width="0.75" height="22.64" fill="url(#Безымянный_градиент_85-34)"/><rect x="30.21" y="9.57" width="0.75" height="22.64" fill="url(#Безымянный_градиент_85-35)"/><rect x="30.96" y="9.57" width="0.75" height="22.64" fill="url(#Безымянный_градиент_85-36)"/><rect x="31.71" y="9.57" width="0.75" height="22.64" fill="url(#Безымянный_градиент_85-37)"/><rect x="32.46" y="9.57" width="0.75" height="22.64" fill="url(#Безымянный_градиент_85-38)"/><rect x="33.21" y="9.57" width="0.75" height="22.64" fill="url(#Безымянный_градиент_85-39)"/><rect x="33.96" y="9.57" width="0.24" height="22.64" fill="url(#Безымянный_градиент_85-40)"/><path d="M1.67,173v0Z" transform="translate(-1.67 -173.04)" fill="url(#Безымянный_градиент_85-41)"/><rect width="0.6" height="69.25" fill="url(#Безымянный_градиент_85-42)"/><rect x="0.6" width="0.6" height="69.25" fill="url(#Безымянный_градиент_85-43)"/><rect x="1.2" width="0.6" height="69.25" fill="url(#Безымянный_градиент_85-44)"/><rect x="1.79" width="0.6" height="69.25" fill="url(#Безымянный_градиент_85-45)"/><rect x="2.39" width="0.6" height="69.25" fill="url(#Безымянный_градиент_85-46)"/><rect x="2.99" width="0.6" height="69.25" fill="url(#Безымянный_градиент_85-47)"/><rect x="3.59" width="0.6" height="69.25" fill="url(#Безымянный_градиент_85-48)"/><rect x="4.19" width="0.6" height="69.25" fill="url(#Безымянный_градиент_85-49)"/><rect x="4.78" width="0.6" height="69.25" fill="url(#Безымянный_градиент_85-50)"/><rect x="5.38" width="0.6" height="69.25" fill="url(#Безымянный_градиент_85-51)"/><rect x="5.98" width="0.6" height="69.25" fill="url(#Безымянный_градиент_85-52)"/><rect x="6.58" width="0.6" height="69.25" fill="url(#Безымянный_градиент_85-53)"/><rect x="7.18" width="0.6" height="69.25" fill="url(#Безымянный_градиент_85-54)"/><rect x="7.77" width="0.6" height="69.25" fill="url(#Безымянный_градиент_85-55)"/><rect x="8.37" width="0.6" height="69.25" fill="url(#Безымянный_градиент_85-56)"/><rect x="8.97" width="0.6" height="69.25" fill="url(#Безымянный_градиент_85-57)"/><rect x="9.57" width="0.6" height="69.25" fill="url(#Безымянный_градиент_85-58)"/><rect x="10.17" width="0.6" height="69.25" fill="url(#Безымянный_градиент_85-59)"/><rect x="10.76" width="0.6" height="69.25" fill="url(#Безымянный_градиент_85-60)"/><rect x="11.36" width="0.6" height="69.25" fill="url(#Безымянный_градиент_85-61)"/><rect x="11.96" width="0.6" height="69.25" fill="url(#Безымянный_градиент_85-62)"/><rect x="12.56" width="0.6" height="69.25" fill="url(#Безымянный_градиент_85-63)"/><rect x="13.16" width="0.6" height="69.25" fill="url(#Безымянный_градиент_85-64)"/><rect x="13.75" width="0.6" height="69.25" fill="url(#Безымянный_градиент_85-65)"/><rect x="14.35" width="0.6" height="69.25" fill="url(#Безымянный_градиент_85-66)"/><rect x="14.95" width="0.6" height="69.25" fill="url(#Безымянный_градиент_85-67)"/><rect x="15.55" width="0.6" height="69.25" fill="url(#Безымянный_градиент_85-68)"/><rect x="16.15" width="0.6" height="69.25" fill="url(#Безымянный_градиент_85-69)"/><rect x="16.74" width="0.6" height="69.25" fill="url(#Безымянный_градиент_85-70)"/><rect x="17.34" width="0.6" height="69.25" fill="url(#Безымянный_градиент_85-71)"/><rect x="17.94" width="0.6" height="69.25" fill="url(#Безымянный_градиент_85-72)"/><rect x="18.54" width="0.6" height="69.25" fill="url(#Безымянный_градиент_85-73)"/><rect x="19.13" width="0.6" height="69.25" fill="url(#Безымянный_градиент_85-74)"/><rect x="19.73" width="0.6" height="69.25" fill="url(#Безымянный_градиент_85-75)"/><rect x="20.33" width="0.6" height="69.25" fill="url(#Безымянный_градиент_85-76)"/><rect x="20.93" width="0.6" height="69.25" fill="url(#Безымянный_градиент_85-77)"/><rect x="21.53" width="0.6" height="69.25" fill="url(#Безымянный_градиент_85-78)"/><rect x="22.12" width="0.6" height="69.25" fill="url(#Безымянный_градиент_85-79)"/><rect x="22.72" width="0.6" height="69.25" fill="url(#Безымянный_градиент_85-80)"/><rect x="23.32" width="0.6" height="69.25" fill="url(#Безымянный_градиент_85-81)"/><rect x="23.92" width="0.6" height="69.25" fill="url(#Безымянный_градиент_85-82)"/><rect x="24.52" width="0.6" height="69.25" fill="url(#Безымянный_градиент_85-83)"/><rect x="25.11" width="0.6" height="69.25" fill="url(#Безымянный_градиент_85-84)"/><rect x="25.71" width="0.75" height="69.25" fill="url(#Безымянный_градиент_85-85)"/><rect x="26.46" width="0.75" height="69.25" fill="url(#Безымянный_градиент_85-86)"/><rect x="27.21" width="0.75" height="69.25" fill="url(#Безымянный_градиент_85-87)"/><rect x="27.96" width="0.75" height="69.25" fill="url(#Безымянный_градиент_85-88)"/><rect x="28.71" width="0.75" height="69.25" fill="url(#Безымянный_градиент_85-89)"/><rect x="29.46" width="0.75" height="69.25" fill="url(#Безымянный_градиент_85-90)"/><rect x="30.21" width="0.75" height="69.25" fill="url(#Безымянный_градиент_85-91)"/><rect x="30.96" width="0.75" height="69.25" fill="url(#Безымянный_градиент_85-92)"/><rect x="31.71" width="0.75" height="69.25" fill="url(#Безымянный_градиент_85-93)"/><rect x="32.46" width="0.75" height="69.25" fill="url(#Безымянный_градиент_85-94)"/><rect x="33.21" width="0.75" height="69.25" fill="url(#Безымянный_градиент_85-95)"/><rect x="33.96" width="0.75" height="69.25" fill="url(#Безымянный_градиент_85-96)"/><rect x="34.71" width="0.75" height="69.25" fill="url(#Безымянный_градиент_85-97)"/><rect x="35.46" width="0.75" height="69.25" fill="url(#Безымянный_градиент_85-98)"/><rect x="36.21" width="0.75" height="69.25" fill="url(#Безымянный_градиент_85-99)"/><rect x="36.96" width="0.75" height="69.25" fill="url(#Безымянный_градиент_85-100)"/><rect x="37.71" width="0.75" height="69.25" fill="url(#Безымянный_градиент_85-101)"/><rect x="38.46" width="0.75" height="69.25" fill="url(#Безымянный_градиент_85-102)"/><rect x="39.21" width="0.75" height="69.25" fill="url(#Безымянный_градиент_85-103)"/><rect x="39.96" width="0.75" height="69.25" fill="url(#Безымянный_градиент_85-104)"/><rect x="40.71" width="0.75" height="69.25" fill="url(#Безымянный_градиент_85-105)"/><rect x="41.46" width="0.75" height="69.25" fill="url(#Безымянный_градиент_85-106)"/><rect x="42.21" width="0.75" height="69.25" fill="url(#Безымянный_градиент_85-107)"/><rect x="42.96" width="0.75" height="69.25" fill="url(#Безымянный_градиент_85-108)"/><rect x="43.71" width="0.75" height="69.25" fill="url(#Безымянный_градиент_85-109)"/><rect x="44.46" width="0.75" height="69.25" fill="url(#Безымянный_градиент_85-110)"/><rect x="45.21" width="0.75" height="69.25" fill="url(#Безымянный_градиент_85-111)"/><rect x="45.96" width="0.75" height="69.25" fill="url(#Безымянный_градиент_85-112)"/><rect x="46.71" width="0.75" height="69.25" fill="url(#Безымянный_градиент_85-113)"/><rect x="47.46" width="0.75" height="69.25" fill="url(#Безымянный_градиент_85-114)"/><rect x="48.21" width="0.75" height="69.25" fill="url(#Безымянный_градиент_85-115)"/><rect x="48.96" width="0.75" height="69.25" fill="url(#Безымянный_градиент_85-116)"/><rect x="49.71" width="0.75" height="69.25" fill="url(#Безымянный_градиент_85-117)"/><rect x="50.46" width="0.75" height="69.25" fill="url(#Безымянный_градиент_85-118)"/><rect x="51.21" width="0.75" height="69.25" fill="url(#Безымянный_градиент_85-119)"/><path d="M53.62,242.29v0Z" transform="translate(-1.67 -173.04)" fill="url(#Безымянный_градиент_85-120)"/></g><path d="M74.89,242.29H63.67V173h39.07v9.57H74.89v21.65H101v9.61H74.89Z" transform="translate(-1.67 -173.04)" fill="url(#Безымянный_градиент_85-2)"/><g clip-path="url(#clip-path-2)"><path d="M63.67,173v0Z" transform="translate(-1.67 -173.04)" fill="url(#Безымянный_градиент_85-122)"/><rect x="62" width="0.45" height="69.25" fill="url(#Безымянный_градиент_85-123)"/><rect x="62.45" width="0.45" height="69.25" fill="url(#Безымянный_градиент_85-124)"/><rect x="62.9" width="0.45" height="69.25" fill="url(#Безымянный_градиент_85-125)"/><rect x="63.35" width="0.45" height="69.25" fill="url(#Безымянный_градиент_85-126)"/><rect x="63.8" width="0.45" height="69.25" fill="url(#Безымянный_градиент_85-127)"/><rect x="64.25" width="0.45" height="69.25" fill="url(#Безымянный_градиент_85-128)"/><rect x="64.7" width="0.45" height="69.25" fill="url(#Безымянный_градиент_85-129)"/><rect x="65.15" width="0.45" height="69.25" fill="url(#Безымянный_градиент_85-130)"/><rect x="65.6" width="0.45" height="69.25" fill="url(#Безымянный_градиент_85-131)"/><rect x="66.05" width="0.45" height="69.25" fill="url(#Безымянный_градиент_85-132)"/><rect x="66.5" width="0.45" height="69.25" fill="url(#Безымянный_градиент_85-133)"/><rect x="66.95" width="0.45" height="69.25" fill="url(#Безымянный_градиент_85-134)"/><rect x="67.4" width="0.45" height="69.25" fill="url(#Безымянный_градиент_85-135)"/><rect x="67.84" width="0.45" height="69.25" fill="url(#Безымянный_градиент_85-136)"/><rect x="68.29" width="0.45" height="69.25" fill="url(#Безымянный_градиент_85-137)"/><rect x="68.74" width="0.45" height="69.25" fill="url(#Безымянный_градиент_85-138)"/><rect x="69.19" width="0.45" height="69.25" fill="url(#Безымянный_градиент_85-139)"/><rect x="69.64" width="0.45" height="69.25" fill="url(#Безымянный_градиент_85-140)"/><rect x="70.09" width="0.45" height="69.25" fill="url(#Безымянный_градиент_85-141)"/><rect x="70.54" width="0.45" height="69.25" fill="url(#Безымянный_градиент_85-142)"/><rect x="70.99" width="0.45" height="69.25" fill="url(#Безымянный_градиент_85-143)"/><rect x="71.44" width="0.45" height="69.25" fill="url(#Безымянный_градиент_85-144)"/><rect x="71.89" width="0.45" height="69.25" fill="url(#Безымянный_градиент_85-145)"/><rect x="72.34" width="0.45" height="69.25" fill="url(#Безымянный_градиент_85-146)"/><rect x="72.79" width="0.45" height="69.25" fill="url(#Безымянный_градиент_85-147)"/><rect x="73.24" width="0.45" height="69.25" fill="url(#Безымянный_градиент_85-148)"/><rect x="73.69" width="0.45" height="69.25" fill="url(#Безымянный_градиент_85-149)"/><rect x="74.14" width="0.45" height="69.25" fill="url(#Безымянный_градиент_85-150)"/><rect x="74.59" width="0.45" height="69.25" fill="url(#Безымянный_градиент_85-151)"/><rect x="75.04" width="0.45" height="69.25" fill="url(#Безымянный_градиент_85-152)"/><rect x="75.49" width="0.45" height="69.25" fill="url(#Безымянный_градиент_85-153)"/><rect x="75.94" width="0.45" height="69.25" fill="url(#Безымянный_градиент_85-154)"/><rect x="76.39" width="0.45" height="69.25" fill="url(#Безымянный_градиент_85-155)"/><rect x="76.84" width="0.45" height="69.25" fill="url(#Безымянный_градиент_85-156)"/><rect x="77.29" width="0.45" height="69.25" fill="url(#Безымянный_градиент_85-157)"/><rect x="77.74" width="0.45" height="69.25" fill="url(#Безымянный_градиент_85-158)"/><rect x="78.19" width="0.45" height="69.25" fill="url(#Безымянный_градиент_85-159)"/><rect x="78.64" width="0.45" height="69.25" fill="url(#Безымянный_градиент_85-160)"/><rect x="79.09" width="0.45" height="69.25" fill="url(#Безымянный_градиент_85-161)"/><rect x="79.54" width="0.45" height="69.25" fill="url(#Безымянный_градиент_85-162)"/><rect x="79.99" width="0.45" height="69.25" fill="url(#Безымянный_градиент_85-163)"/><rect x="80.44" width="0.45" height="69.25" fill="url(#Безымянный_градиент_85-164)"/><rect x="80.89" width="0.45" height="69.25" fill="url(#Безымянный_градиент_85-165)"/><rect x="81.34" width="0.56" height="69.25" fill="url(#Безымянный_градиент_85-166)"/><rect x="81.9" width="0.56" height="69.25" fill="url(#Безымянный_градиент_85-167)"/><rect x="82.46" width="0.56" height="69.25" fill="url(#Безымянный_градиент_85-168)"/><rect x="83.03" width="0.56" height="69.25" fill="url(#Безымянный_градиент_85-169)"/><rect x="83.59" width="0.56" height="69.25" fill="url(#Безымянный_градиент_85-170)"/><rect x="84.16" width="0.56" height="69.25" fill="url(#Безымянный_градиент_85-171)"/><rect x="84.72" width="0.56" height="69.25" fill="url(#Безымянный_градиент_85-172)"/><rect x="85.28" width="0.56" height="69.25" fill="url(#Безымянный_градиент_85-173)"/><rect x="85.85" width="0.56" height="69.25" fill="url(#Безымянный_градиент_85-174)"/><rect x="86.41" width="0.56" height="69.25" fill="url(#Безымянный_градиент_85-175)"/><rect x="86.98" width="0.56" height="69.25" fill="url(#Безымянный_градиент_85-176)"/><rect x="87.54" width="0.56" height="69.25" fill="url(#Безымянный_градиент_85-177)"/><rect x="88.1" width="0.56" height="69.25" fill="url(#Безымянный_градиент_85-178)"/><rect x="88.67" width="0.56" height="69.25" fill="url(#Безымянный_градиент_85-179)"/><rect x="89.23" width="0.56" height="69.25" fill="url(#Безымянный_градиент_85-180)"/><rect x="89.79" width="0.56" height="69.25" fill="url(#Безымянный_градиент_85-181)"/><rect x="90.36" width="0.56" height="69.25" fill="url(#Безымянный_градиент_85-182)"/><rect x="90.92" width="0.56" height="69.25" fill="url(#Безымянный_градиент_85-183)"/><rect x="91.49" width="0.56" height="69.25" fill="url(#Безымянный_градиент_85-184)"/><rect x="92.05" width="0.56" height="69.25" fill="url(#Безымянный_градиент_85-185)"/><rect x="92.61" width="0.56" height="69.25" fill="url(#Безымянный_градиент_85-186)"/><rect x="93.18" width="0.56" height="69.25" fill="url(#Безымянный_градиент_85-187)"/><rect x="93.74" width="0.56" height="69.25" fill="url(#Безымянный_градиент_85-188)"/><rect x="94.31" width="0.56" height="69.25" fill="url(#Безымянный_градиент_85-189)"/><rect x="94.87" width="0.56" height="69.25" fill="url(#Безымянный_градиент_85-190)"/><rect x="95.43" width="0.56" height="69.25" fill="url(#Безымянный_градиент_85-191)"/><rect x="96" width="0.56" height="69.25" fill="url(#Безымянный_градиент_85-192)"/><rect x="96.56" width="0.56" height="69.25" fill="url(#Безымянный_градиент_85-193)"/><rect x="97.13" width="0.56" height="69.25" fill="url(#Безымянный_градиент_85-194)"/><rect x="97.69" width="0.56" height="69.25" fill="url(#Безымянный_градиент_85-195)"/><rect x="98.25" width="0.56" height="69.25" fill="url(#Безымянный_градиент_85-196)"/><rect x="98.82" width="0.56" height="69.25" fill="url(#Безымянный_градиент_85-197)"/><rect x="99.38" width="0.56" height="69.25" fill="url(#Безымянный_градиент_85-198)"/><rect x="99.95" width="0.56" height="69.25" fill="url(#Безымянный_градиент_85-199)"/><rect x="100.51" width="0.56" height="69.25" fill="url(#Безымянный_градиент_85-200)"/><path d="M102.74,242.29v0Z" transform="translate(-1.67 -173.04)" fill="url(#Безымянный_градиент_85-201)"/></g><path d="M13,214.63v27.66H1.67V173H21.23q13.4,0,19.84,5t6.44,15.16q0,12.93-13.45,18.43l19.56,30.64H40.74L24.16,214.63Zm0-9.38h7.86q7.91,0,11.46-2.94t3.55-8.71q0-5.88-3.83-8.43t-11.56-2.56H13Z" transform="translate(-1.67 -173.04)" fill="url(#Безымянный_градиент_85-202)"/><path d="M74.89,242.29H63.67V173h39.07v9.57H74.89v21.65H101v9.61H74.89Z" transform="translate(-1.67 -173.04)" fill="url(#Безымянный_градиент_85-203)"/><text x="-1.67" y="-173.04"></text></svg>